<svg width="415" height="354" viewBox="0 0 415 354" fill="none" xmlns="http://www.w3.org/2000/svg">
<path d="M0 240.5C0 303.184 50.8157 354 113.5 354C128.147 354 142.146 351.226 155 346.174V302.613C143.263 310.439 129.164 315 114 315C73.1309 315 40 281.869 40 241C40 200.131 73.1309 167 114 167C154.869 167 188 200.131 188 241V326.129C211.896 305.321 227 274.674 227 240.5L228 114C228 73.1309 261.131 40 302 40C342.869 40 376 73.1309 376 114C376 154.869 342.869 188 302 188C286.836 188 272.737 183.439 261 175.613V219.561C273.579 224.367 287.232 227 301.5 227C364.184 227 415 176.184 415 113.5C415 50.8157 364.184 0 301.5 0C238.816 0 188 50.8157 188 113.5L188.148 155C168.194 137.564 142.081 127 113.5 127C50.8157 127 0 177.816 0 240.5Z" fill="url(#paint0_linear_1436_286)"/>
<path d="M155 241C155 263.644 136.644 282 114 282C91.3563 282 73 263.644 73 241C73 218.356 91.3563 200 114 200C136.644 200 155 218.356 155 241Z" fill="#65DCC3"/>
<path d="M343 114C343 136.644 324.644 155 302 155C279.356 155 261 136.644 261 114C261 91.3563 279.356 73 302 73C324.644 73 343 91.3563 343 114Z" fill="#65DCC3"/>
<defs>
<linearGradient id="paint0_linear_1436_286" x1="207.5" y1="0" x2="207.5" y2="354" gradientUnits="userSpaceOnUse">
<stop stop-color="#65DCC3"/>
<stop offset="1" stop-color="#367669"/>
</linearGradient>
</defs>
</svg>
